<svg height="800pt" preserveAspectRatio="xMidYMid meet" viewBox="0 0 800 800" width="800pt" xmlns="http://www.w3.org/2000/svg"><g transform="matrix(.1 0 0 -.1 0 800)"><path d="m1450 7889c-305-32-628-180-858-394-243-226-397-504-464-837l-23-113v-2535c0-2760-3-2592 57-2810 29-105 111-290 171-385 239-381 644-640 1097-701 156-20 4984-20 5140 0 453 61 858 320 1097 701 60 95 142 280 171 385 60 218 57 50 57 2810v2535l-22 110c-65 319-200 571-428 800-247 248-566 400-914 435-129 13-4956 11-5081-1zm5120-203c271-37 533-169 741-376 186-186 300-394 365-670 17-71 19-216 21-2585 4-2785 7-2633-62-2839-71-212-167-369-325-527-190-190-409-308-680-366-81-17-211-18-2630-18s-2549 1-2630 18c-271 58-490 176-680 366-158 158-254 315-325 527-69 206-66 54-62 2839 3 2792-3 2537 69 2750 110 324 353 602 664 758 104 52 276 107 384 122 146 20 5000 21 5150 1z"/><path d="m4000 5000v-1000h-1000-1000v-1000-1000h1000 1000v1000 1000h1000 1000v1000 1000h-1000-1000z"/></g></svg>