<?xml version="1.0" standalone="no"?>
<!DOCTYPE svg PUBLIC "-//W3C//DTD SVG 20010904//EN"
 "http://www.w3.org/TR/2001/REC-SVG-20010904/DTD/svg10.dtd">
<svg version="1.0" xmlns="http://www.w3.org/2000/svg"
 width="512.000000pt" height="512.000000pt" viewBox="0 0 512.000000 512.000000"
 preserveAspectRatio="xMidYMid meet">

<g transform="translate(0.000000,512.000000) scale(0.100000,-0.100000)"
fill="#000000" stroke="none">
<path d="M836 5034 c-194 -42 -364 -139 -506 -290 -109 -116 -182 -243 -232
-405 l-23 -74 -3 -1670 c-2 -1501 -1 -1678 13 -1750 59 -293 259 -549 530
-680 50 -24 126 -54 170 -67 l80 -23 1695 0 1695 0 80 23 c356 102 628 393
700 747 14 72 15 249 13 1750 l-3 1670 -23 74 c-66 215 -189 392 -362 523 -77
59 -216 128 -320 160 l-75 23 -1680 2 c-1452 1 -1689 0 -1749 -13z m3369 -114
c360 -53 662 -355 715 -715 6 -45 10 -640 10 -1645 0 -1005 -4 -1600 -10
-1645 -53 -360 -355 -662 -715 -715 -96 -13 -3194 -13 -3290 0 -360 53 -662
355 -715 715 -13 96 -13 3194 0 3290 44 304 270 575 564 676 47 16 111 33 143
38 85 13 3212 13 3298 1z"/>
<path d="M2560 3200 l0 -640 -640 0 -640 0 0 -640 0 -640 640 0 640 0 0 640 0
640 640 0 640 0 0 640 0 640 -640 0 -640 0 0 -640z"/>
</g>
</svg>
